<svg version="1.1" xmlns="http://www.w3.org/2000/svg" xmlns:xlink="http://www.w3.org/1999/xlink" width="435" height="563"><defs/><g><g transform="translate(-142,-94) scale(1,1)"><rect fill="#C0C0C0" stroke="none" x="167" y="111" width="159" height="223" opacity="0.2"/></g><g transform="translate(-142,-94) scale(1,1)"><rect fill="#ffffff" stroke="none" x="160" y="104" width="159" height="223"/></g><g transform="translate(-142,-94) scale(1,1)"><path fill="none" stroke="#000000" d="M 160 104 L 319 104 L 319 327 L 160 327 L 160 104 Z Z" stroke-miterlimit="10"/></g><g transform="translate(-142,-94) scale(1,1)"><path fill="none" stroke="#000000" d="M 160 129 L 319 129" stroke-miterlimit="10"/></g><g transform="translate(-142,-94) scale(1,1)"><g><path fill="none" stroke="none"/><text fill="#000000" stroke="none" font-family="Arial" font-size="13px" font-style="normal" font-weight="bold" text-decoration="none" x="231" y="123.5">list</text></g></g><g transform="translate(-142,-94) scale(1,1)"><g><path fill="none" stroke="none"/><text fill="#000000" stroke="none" font-family="Arial" font-size="13px" font-style="normal" font-weight="normal" text-decoration="none" x="165" y="146.5">+name</text></g></g><g transform="translate(-142,-94) scale(1,1)"><rect fill="#C0C0C0" stroke="none" x="415" y="271" width="159" height="223" opacity="0.2"/></g><g transform="translate(-142,-94) scale(1,1)"><rect fill="#ffffff" stroke="none" x="408" y="264" width="159" height="223"/></g><g transform="translate(-142,-94) scale(1,1)"><path fill="none" stroke="#000000" d="M 408 264 L 567 264 L 567 487 L 408 487 L 408 264 Z Z" stroke-miterlimit="10"/></g><g transform="translate(-142,-94) scale(1,1)"><path fill="none" stroke="#000000" d="M 408 289 L 567 289" stroke-miterlimit="10"/></g><g transform="translate(-142,-94) scale(1,1)"><g><path fill="none" stroke="none"/><text fill="#000000" stroke="none" font-family="Arial" font-size="13px" font-style="normal" font-weight="bold" text-decoration="none" x="475" y="283.5">card</text></g></g><g transform="translate(-142,-94) scale(1,1)"><g><path fill="none" stroke="none"/><text fill="#000000" stroke="none" font-family="Arial" font-size="13px" font-style="normal" font-weight="normal" text-decoration="none" x="413" y="306.5">+name</text></g></g><g transform="translate(-142,-94) scale(1,1)"><rect fill="#C0C0C0" stroke="none" x="159" y="431" width="159" height="223" opacity="0.2"/></g><g transform="translate(-142,-94) scale(1,1)"><rect fill="#ffffff" stroke="none" x="152" y="424" width="159" height="223"/></g><g transform="translate(-142,-94) scale(1,1)"><path fill="none" stroke="#000000" d="M 152 424 L 311 424 L 311 647 L 152 647 L 152 424 Z Z" stroke-miterlimit="10"/></g><g transform="translate(-142,-94) scale(1,1)"><path fill="none" stroke="#000000" d="M 152 449 L 311 449" stroke-miterlimit="10"/></g><g transform="translate(-142,-94) scale(1,1)"><g><path fill="none" stroke="none"/><text fill="#000000" stroke="none" font-family="Arial" font-size="13px" font-style="normal" font-weight="bold" text-decoration="none" x="219" y="443.5">user</text></g></g><g transform="translate(-142,-94) scale(1,1)"><g><path fill="none" stroke="none"/><text fill="#000000" stroke="none" font-family="Arial" font-size="13px" font-style="normal" font-weight="normal" text-decoration="none" x="157" y="466.5">+firstname</text></g></g><g transform="translate(-142,-94) scale(1,1)"><g><path fill="none" stroke="none"/><text fill="#000000" stroke="none" font-family="Arial" font-size="13px" font-style="normal" font-weight="normal" text-decoration="none" x="157" y="481.5">+lastname</text></g></g><g transform="translate(-142,-94) scale(1,1)"><path fill="none" stroke="#000000" d="M 320 267 L 407 323" stroke-miterlimit="10"/></g><g transform="translate(-142,-94) scale(1,1)"><g><path fill="none" stroke="none"/><text fill="#000000" stroke="none" font-family="Arial" font-size="13px" font-style="normal" font-weight="normal" text-decoration="none" x="327.5" y="295.5">1</text></g></g><g transform="translate(-142,-94) scale(1,1)"><g><path fill="none" stroke="none"/><text fill="#000000" stroke="none" font-family="Arial" font-size="13px" font-style="normal" font-weight="normal" text-decoration="none" x="371.5" y="327.5">0..*</text></g></g><g transform="translate(-142,-94) scale(1,1)"><path fill="none" stroke="#000000" d="M 312 484 L 407 425" stroke-miterlimit="10"/></g><g transform="translate(-142,-94) scale(1,1)"><g><path fill="none" stroke="none"/><text fill="#000000" stroke="none" font-family="Arial" font-size="13px" font-style="normal" font-weight="normal" text-decoration="none" x="325.5" y="489.5">0..*</text></g></g><g transform="translate(-142,-94) scale(1,1)"><g><path fill="none" stroke="none"/><text fill="#000000" stroke="none" font-family="Arial" font-size="13px" font-style="normal" font-weight="normal" text-decoration="none" x="384.5" y="453.5">0..*</text></g></g></g></svg>