<svg version="1.1" xmlns="http://www.w3.org/2000/svg" xmlns:xlink="http://www.w3.org/1999/xlink" width="523" height="699"><defs/><g><g transform="translate(-150,-94) scale(1,1)"><rect fill="#C0C0C0" stroke="none" x="167" y="111" width="159" height="223" opacity="0.2"/></g><g transform="translate(-150,-94) scale(1,1)"><rect fill="#ffffff" stroke="none" x="160" y="104" width="159" height="223"/></g><g transform="translate(-150,-94) scale(1,1)"><path fill="none" stroke="#000000" d="M 160 104 L 319 104 L 319 327 L 160 327 L 160 104 Z Z" stroke-miterlimit="10"/></g><g transform="translate(-150,-94) scale(1,1)"><path fill="none" stroke="#000000" d="M 160 129 L 319 129" stroke-miterlimit="10"/></g><g transform="translate(-150,-94) scale(1,1)"><g><path fill="none" stroke="none"/><text fill="#000000" stroke="none" font-family="Arial" font-size="13px" font-style="normal" font-weight="bold" text-decoration="none" x="231" y="123.5">list</text></g></g><g transform="translate(-150,-94) scale(1,1)"><g><path fill="none" stroke="none"/><text fill="#000000" stroke="none" font-family="Arial" font-size="13px" font-style="normal" font-weight="normal" text-decoration="none" x="165" y="146.5">+id</text></g></g><g transform="translate(-150,-94) scale(1,1)"><g><path fill="none" stroke="none"/><text fill="#000000" stroke="none" font-family="Arial" font-size="13px" font-style="normal" font-weight="normal" text-decoration="none" x="165" y="161.5">+name</text></g></g><g transform="translate(-150,-94) scale(1,1)"><rect fill="#C0C0C0" stroke="none" x="511" y="303" width="159" height="223" opacity="0.2"/></g><g transform="translate(-150,-94) scale(1,1)"><rect fill="#ffffff" stroke="none" x="504" y="296" width="159" height="223"/></g><g transform="translate(-150,-94) scale(1,1)"><path fill="none" stroke="#000000" d="M 504 296 L 663 296 L 663 519 L 504 519 L 504 296 Z Z" stroke-miterlimit="10"/></g><g transform="translate(-150,-94) scale(1,1)"><path fill="none" stroke="#000000" d="M 504 321 L 663 321" stroke-miterlimit="10"/></g><g transform="translate(-150,-94) scale(1,1)"><g><path fill="none" stroke="none"/><text fill="#000000" stroke="none" font-family="Arial" font-size="13px" font-style="normal" font-weight="bold" text-decoration="none" x="571" y="315.5">card</text></g></g><g transform="translate(-150,-94) scale(1,1)"><g><path fill="none" stroke="none"/><text fill="#000000" stroke="none" font-family="Arial" font-size="13px" font-style="normal" font-weight="normal" text-decoration="none" x="509" y="338.5">+id</text></g></g><g transform="translate(-150,-94) scale(1,1)"><g><path fill="none" stroke="none"/><text fill="#000000" stroke="none" font-family="Arial" font-size="13px" font-style="normal" font-weight="normal" text-decoration="none" x="509" y="353.5">+name</text></g></g><g transform="translate(-150,-94) scale(1,1)"><rect fill="#C0C0C0" stroke="none" x="191" y="567" width="159" height="223" opacity="0.2"/></g><g transform="translate(-150,-94) scale(1,1)"><rect fill="#ffffff" stroke="none" x="184" y="560" width="159" height="223"/></g><g transform="translate(-150,-94) scale(1,1)"><path fill="none" stroke="#000000" d="M 184 560 L 343 560 L 343 783 L 184 783 L 184 560 Z Z" stroke-miterlimit="10"/></g><g transform="translate(-150,-94) scale(1,1)"><path fill="none" stroke="#000000" d="M 184 585 L 343 585" stroke-miterlimit="10"/></g><g transform="translate(-150,-94) scale(1,1)"><g><path fill="none" stroke="none"/><text fill="#000000" stroke="none" font-family="Arial" font-size="13px" font-style="normal" font-weight="bold" text-decoration="none" x="251" y="579.5">user</text></g></g><g transform="translate(-150,-94) scale(1,1)"><g><path fill="none" stroke="none"/><text fill="#000000" stroke="none" font-family="Arial" font-size="13px" font-style="normal" font-weight="normal" text-decoration="none" x="189" y="602.5">+id</text></g></g><g transform="translate(-150,-94) scale(1,1)"><g><path fill="none" stroke="none"/><text fill="#000000" stroke="none" font-family="Arial" font-size="13px" font-style="normal" font-weight="normal" text-decoration="none" x="189" y="617.5">+firstname</text></g></g><g transform="translate(-150,-94) scale(1,1)"><g><path fill="none" stroke="none"/><text fill="#000000" stroke="none" font-family="Arial" font-size="13px" font-style="normal" font-weight="normal" text-decoration="none" x="189" y="632.5">+lastname</text></g></g><g transform="translate(-150,-94) scale(1,1)"><path fill="none" stroke="#000000" d="M 320 260 L 503 362" stroke-miterlimit="10"/></g><g transform="translate(-150,-94) scale(1,1)"><g><path fill="none" stroke="none"/><text fill="#000000" stroke="none" font-family="Arial" font-size="13px" font-style="normal" font-weight="normal" text-decoration="none" x="328.5" y="287.5">1</text></g></g><g transform="translate(-150,-94) scale(1,1)"><g><path fill="none" stroke="none"/><text fill="#000000" stroke="none" font-family="Arial" font-size="13px" font-style="normal" font-weight="normal" text-decoration="none" x="467.5" y="368.5">0..*</text></g></g><g transform="translate(-150,-94) scale(1,1)"><path fill="none" stroke="#000000" d="M 344 604 L 503 473" stroke-miterlimit="10"/></g><g transform="translate(-150,-94) scale(1,1)"><g><path fill="none" stroke="none"/><text fill="#000000" stroke="none" font-family="Arial" font-size="13px" font-style="normal" font-weight="normal" text-decoration="none" x="357.5" y="605.5">0..*</text></g></g><g transform="translate(-150,-94) scale(1,1)"><g><path fill="none" stroke="none"/><text fill="#000000" stroke="none" font-family="Arial" font-size="13px" font-style="normal" font-weight="normal" text-decoration="none" x="483.5" y="502.5">0..*</text></g></g><g transform="translate(-150,-94) scale(1,1)"><rect fill="#C0C0C0" stroke="none" x="287" y="367" width="111" height="151" opacity="0.2"/></g><g transform="translate(-150,-94) scale(1,1)"><rect fill="#ffffff" stroke="none" x="280" y="360" width="111" height="151"/></g><g transform="translate(-150,-94) scale(1,1)"><path fill="none" stroke="#000000" d="M 280 360 L 391 360 L 391 511 L 280 511 L 280 360 Z Z" stroke-miterlimit="10"/></g><g transform="translate(-150,-94) scale(1,1)"><path fill="none" stroke="#000000" d="M 280 385 L 391 385" stroke-miterlimit="10"/></g><g transform="translate(-150,-94) scale(1,1)"><path fill="none" stroke="#000000" d="M 280 438 L 391 438" stroke-miterlimit="10"/></g><g transform="translate(-150,-94) scale(1,1)"><g><path fill="none" stroke="none"/><text fill="#000000" stroke="none" font-family="Arial" font-size="13px" font-style="normal" font-weight="bold" text-decoration="none" x="295" y="379.5">user_card_list</text></g></g><g transform="translate(-150,-94) scale(1,1)"><g><path fill="none" stroke="none"/><text fill="#000000" stroke="none" font-family="Arial" font-size="13px" font-style="normal" font-weight="normal" text-decoration="none" x="285" y="402.5">+user_id</text></g></g><g transform="translate(-150,-94) scale(1,1)"><g><path fill="none" stroke="none"/><text fill="#000000" stroke="none" font-family="Arial" font-size="13px" font-style="normal" font-weight="normal" text-decoration="none" x="285" y="417.5">+card_id</text></g></g><g transform="translate(-150,-94) scale(1,1)"><g><path fill="none" stroke="none"/><text fill="#000000" stroke="none" font-family="Arial" font-size="13px" font-style="normal" font-weight="normal" text-decoration="none" x="285" y="432.5">+list_id</text></g></g><g transform="translate(-150,-94) scale(1,1)"><path fill="none" stroke="#000000" d="M 392 502 L 423 538" stroke-miterlimit="10" stroke-dasharray="3"/></g><g transform="translate(-150,-94) scale(1,1)"><path fill="none" stroke="#000000" d="M 382 359 L 411 311" stroke-miterlimit="10" stroke-dasharray="3"/></g></g></svg>