<svg version="1.1" xmlns="http://www.w3.org/2000/svg" xmlns:xlink="http://www.w3.org/1999/xlink" width="467" height="587"><defs/><g><g transform="translate(-142,-94) scale(1,1)"><rect fill="#C0C0C0" stroke="none" x="167" y="111" width="159" height="223" opacity="0.2"/></g><g transform="translate(-142,-94) scale(1,1)"><rect fill="#ffffff" stroke="none" x="160" y="104" width="159" height="223"/></g><g transform="translate(-142,-94) scale(1,1)"><path fill="none" stroke="#000000" d="M 160 104 L 319 104 L 319 327 L 160 327 L 160 104 Z Z" stroke-miterlimit="10"/></g><g transform="translate(-142,-94) scale(1,1)"><path fill="none" stroke="#000000" d="M 160 129 L 319 129" stroke-miterlimit="10"/></g><g transform="translate(-142,-94) scale(1,1)"><g><path fill="none" stroke="none"/><text fill="#000000" stroke="none" font-family="Arial" font-size="13px" font-style="normal" font-weight="bold" text-decoration="none" x="231" y="123.5">list</text></g></g><g transform="translate(-142,-94) scale(1,1)"><g><path fill="none" stroke="none"/><text fill="#000000" stroke="none" font-family="Arial" font-size="13px" font-style="normal" font-weight="normal" text-decoration="none" x="165" y="146.5">+id</text></g></g><g transform="translate(-142,-94) scale(1,1)"><g><path fill="none" stroke="none"/><text fill="#000000" stroke="none" font-family="Arial" font-size="13px" font-style="normal" font-weight="normal" text-decoration="none" x="165" y="161.5">+name</text></g></g><g transform="translate(-142,-94) scale(1,1)"><rect fill="#C0C0C0" stroke="none" x="447" y="247" width="159" height="223" opacity="0.2"/></g><g transform="translate(-142,-94) scale(1,1)"><rect fill="#ffffff" stroke="none" x="440" y="240" width="159" height="223"/></g><g transform="translate(-142,-94) scale(1,1)"><path fill="none" stroke="#000000" d="M 440 240 L 599 240 L 599 463 L 440 463 L 440 240 Z Z" stroke-miterlimit="10"/></g><g transform="translate(-142,-94) scale(1,1)"><path fill="none" stroke="#000000" d="M 440 265 L 599 265" stroke-miterlimit="10"/></g><g transform="translate(-142,-94) scale(1,1)"><g><path fill="none" stroke="none"/><text fill="#000000" stroke="none" font-family="Arial" font-size="13px" font-style="normal" font-weight="bold" text-decoration="none" x="507" y="259.5">card</text></g></g><g transform="translate(-142,-94) scale(1,1)"><g><path fill="none" stroke="none"/><text fill="#000000" stroke="none" font-family="Arial" font-size="13px" font-style="normal" font-weight="normal" text-decoration="none" x="445" y="282.5">+id</text></g></g><g transform="translate(-142,-94) scale(1,1)"><g><path fill="none" stroke="none"/><text fill="#000000" stroke="none" font-family="Arial" font-size="13px" font-style="normal" font-weight="normal" text-decoration="none" x="445" y="297.5">+name</text></g></g><g transform="translate(-142,-94) scale(1,1)"><g><path fill="none" stroke="none"/><text fill="#000000" stroke="none" font-family="Arial" font-size="13px" font-style="normal" font-weight="normal" text-decoration="none" x="445" y="312.5">+list_id</text></g></g><g transform="translate(-142,-94) scale(1,1)"><rect fill="#C0C0C0" stroke="none" x="159" y="431" width="159" height="223" opacity="0.2"/></g><g transform="translate(-142,-94) scale(1,1)"><rect fill="#ffffff" stroke="none" x="152" y="424" width="159" height="223"/></g><g transform="translate(-142,-94) scale(1,1)"><path fill="none" stroke="#000000" d="M 152 424 L 311 424 L 311 647 L 152 647 L 152 424 Z Z" stroke-miterlimit="10"/></g><g transform="translate(-142,-94) scale(1,1)"><path fill="none" stroke="#000000" d="M 152 449 L 311 449" stroke-miterlimit="10"/></g><g transform="translate(-142,-94) scale(1,1)"><g><path fill="none" stroke="none"/><text fill="#000000" stroke="none" font-family="Arial" font-size="13px" font-style="normal" font-weight="bold" text-decoration="none" x="219" y="443.5">user</text></g></g><g transform="translate(-142,-94) scale(1,1)"><g><path fill="none" stroke="none"/><text fill="#000000" stroke="none" font-family="Arial" font-size="13px" font-style="normal" font-weight="normal" text-decoration="none" x="157" y="466.5">+id</text></g></g><g transform="translate(-142,-94) scale(1,1)"><g><path fill="none" stroke="none"/><text fill="#000000" stroke="none" font-family="Arial" font-size="13px" font-style="normal" font-weight="normal" text-decoration="none" x="157" y="481.5">+firstname</text></g></g><g transform="translate(-142,-94) scale(1,1)"><g><path fill="none" stroke="none"/><text fill="#000000" stroke="none" font-family="Arial" font-size="13px" font-style="normal" font-weight="normal" text-decoration="none" x="157" y="496.5">+lastname</text></g></g><g transform="translate(-142,-94) scale(1,1)"><path fill="none" stroke="#000000" d="M 320 254 L 439 312" stroke-miterlimit="10"/></g><g transform="translate(-142,-94) scale(1,1)"><g><path fill="none" stroke="none"/><text fill="#000000" stroke="none" font-family="Arial" font-size="13px" font-style="normal" font-weight="normal" text-decoration="none" x="329.5" y="280.5">1</text></g></g><g transform="translate(-142,-94) scale(1,1)"><g><path fill="none" stroke="none"/><text fill="#000000" stroke="none" font-family="Arial" font-size="13px" font-style="normal" font-weight="normal" text-decoration="none" x="403.5" y="319.5">0..*</text></g></g><g transform="translate(-142,-94) scale(1,1)"><path fill="none" stroke="#000000" d="M 312 483 L 439 402" stroke-miterlimit="10"/></g><g transform="translate(-142,-94) scale(1,1)"><g><path fill="none" stroke="none"/><text fill="#000000" stroke="none" font-family="Arial" font-size="13px" font-style="normal" font-weight="normal" text-decoration="none" x="325.5" y="487.5">0..*</text></g></g><g transform="translate(-142,-94) scale(1,1)"><g><path fill="none" stroke="none"/><text fill="#000000" stroke="none" font-family="Arial" font-size="13px" font-style="normal" font-weight="normal" text-decoration="none" x="416.5" y="430.5">0..*</text></g></g><g transform="translate(-142,-94) scale(1,1)"><rect fill="#C0C0C0" stroke="none" x="383" y="527" width="111" height="151" opacity="0.2"/></g><g transform="translate(-142,-94) scale(1,1)"><rect fill="#ffffff" stroke="none" x="376" y="520" width="111" height="151"/></g><g transform="translate(-142,-94) scale(1,1)"><path fill="none" stroke="#000000" d="M 376 520 L 487 520 L 487 671 L 376 671 L 376 520 Z Z" stroke-miterlimit="10"/></g><g transform="translate(-142,-94) scale(1,1)"><path fill="none" stroke="#000000" d="M 376 545 L 487 545" stroke-miterlimit="10"/></g><g transform="translate(-142,-94) scale(1,1)"><path fill="none" stroke="#000000" d="M 376 583 L 487 583" stroke-miterlimit="10"/></g><g transform="translate(-142,-94) scale(1,1)"><g><path fill="none" stroke="none"/><text fill="#000000" stroke="none" font-family="Arial" font-size="13px" font-style="normal" font-weight="bold" text-decoration="none" x="403" y="539.5">user_card</text></g></g><g transform="translate(-142,-94) scale(1,1)"><g><path fill="none" stroke="none"/><text fill="#000000" stroke="none" font-family="Arial" font-size="13px" font-style="normal" font-weight="normal" text-decoration="none" x="381" y="562.5">+user_id</text></g></g><g transform="translate(-142,-94) scale(1,1)"><g><path fill="none" stroke="none"/><text fill="#000000" stroke="none" font-family="Arial" font-size="13px" font-style="normal" font-weight="normal" text-decoration="none" x="381" y="577.5">+card_id</text></g></g><g transform="translate(-142,-94) scale(1,1)"><path fill="none" stroke="#000000" d="M 403 519 L 375 442" stroke-miterlimit="10" stroke-dasharray="3"/></g></g></svg>