<svg version="1.1" xmlns="http://www.w3.org/2000/svg" xmlns:xlink="http://www.w3.org/1999/xlink" width="451" height="468"><defs/><g><g transform="translate(-106,-70) scale(1,1)"><rect fill="#C0C0C0" stroke="none" x="268" y="263" width="141" height="88" opacity="0.2"/></g><g transform="translate(-106,-70) scale(1,1)"><rect fill="#ffffff" stroke="none" x="261" y="256" width="141" height="88"/></g><g transform="translate(-106,-70) scale(1,1)"><path fill="none" stroke="#000000" d="M 261 256 L 402 256 L 402 344 L 261 344 L 261 256 Z Z" stroke-miterlimit="10"/></g><g transform="translate(-106,-70) scale(1,1)"><path fill="none" stroke="#000000" d="M 261 281 L 402 281" stroke-miterlimit="10"/></g><g transform="translate(-106,-70) scale(1,1)"><g><path fill="none" stroke="none"/><text fill="#000000" stroke="none" font-family="Arial" font-size="13px" font-style="normal" font-weight="bold" text-decoration="none" x="291" y="275.5">user_card_list</text></g></g><g transform="translate(-106,-70) scale(1,1)"><g><path fill="none" stroke="none"/><text fill="#000000" stroke="none" font-family="Arial" font-size="13px" font-style="normal" font-weight="normal" text-decoration="none" x="266" y="298.5">+user_id</text></g></g><g transform="translate(-106,-70) scale(1,1)"><g><path fill="none" stroke="none"/><text fill="#000000" stroke="none" font-family="Arial" font-size="13px" font-style="normal" font-weight="normal" text-decoration="none" x="266" y="313.5">+card_id</text></g></g><g transform="translate(-106,-70) scale(1,1)"><g><path fill="none" stroke="none"/><text fill="#000000" stroke="none" font-family="Arial" font-size="13px" font-style="normal" font-weight="normal" text-decoration="none" x="266" y="328.5">+list_id</text></g></g><g transform="translate(-106,-70) scale(1,1)"><rect fill="#C0C0C0" stroke="none" x="271" y="447" width="141" height="88" opacity="0.2"/></g><g transform="translate(-106,-70) scale(1,1)"><rect fill="#ffffff" stroke="none" x="264" y="440" width="141" height="88"/></g><g transform="translate(-106,-70) scale(1,1)"><path fill="none" stroke="#000000" d="M 264 440 L 405 440 L 405 528 L 264 528 L 264 440 Z Z" stroke-miterlimit="10"/></g><g transform="translate(-106,-70) scale(1,1)"><path fill="none" stroke="#000000" d="M 264 465 L 405 465" stroke-miterlimit="10"/></g><g transform="translate(-106,-70) scale(1,1)"><g><path fill="none" stroke="none"/><text fill="#000000" stroke="none" font-family="Arial" font-size="13px" font-style="normal" font-weight="bold" text-decoration="none" x="322" y="459.5">user</text></g></g><g transform="translate(-106,-70) scale(1,1)"><g><path fill="none" stroke="none"/><text fill="#000000" stroke="none" font-family="Arial" font-size="13px" font-style="normal" font-weight="normal" text-decoration="none" x="269" y="482.5">+id</text></g></g><g transform="translate(-106,-70) scale(1,1)"><g><path fill="none" stroke="none"/><text fill="#000000" stroke="none" font-family="Arial" font-size="13px" font-style="normal" font-weight="normal" text-decoration="none" x="269" y="497.5">+firstname</text></g></g><g transform="translate(-106,-70) scale(1,1)"><g><path fill="none" stroke="none"/><text fill="#000000" stroke="none" font-family="Arial" font-size="13px" font-style="normal" font-weight="normal" text-decoration="none" x="269" y="512.5">+lastname</text></g></g><g transform="translate(-106,-70) scale(1,1)"><rect fill="#C0C0C0" stroke="none" x="123" y="87" width="141" height="88" opacity="0.2"/></g><g transform="translate(-106,-70) scale(1,1)"><rect fill="#ffffff" stroke="none" x="116" y="80" width="141" height="88"/></g><g transform="translate(-106,-70) scale(1,1)"><path fill="none" stroke="#000000" d="M 116 80 L 257 80 L 257 168 L 116 168 L 116 80 Z Z" stroke-miterlimit="10"/></g><g transform="translate(-106,-70) scale(1,1)"><path fill="none" stroke="#000000" d="M 116 105 L 257 105" stroke-miterlimit="10"/></g><g transform="translate(-106,-70) scale(1,1)"><g><path fill="none" stroke="none"/><text fill="#000000" stroke="none" font-family="Arial" font-size="13px" font-style="normal" font-weight="bold" text-decoration="none" x="178" y="99.5">list</text></g></g><g transform="translate(-106,-70) scale(1,1)"><g><path fill="none" stroke="none"/><text fill="#000000" stroke="none" font-family="Arial" font-size="13px" font-style="normal" font-weight="normal" text-decoration="none" x="121" y="122.5">+id</text></g></g><g transform="translate(-106,-70) scale(1,1)"><g><path fill="none" stroke="none"/><text fill="#000000" stroke="none" font-family="Arial" font-size="13px" font-style="normal" font-weight="normal" text-decoration="none" x="121" y="137.5">+name</text></g></g><g transform="translate(-106,-70) scale(1,1)"><rect fill="#C0C0C0" stroke="none" x="413" y="87" width="141" height="88" opacity="0.2"/></g><g transform="translate(-106,-70) scale(1,1)"><rect fill="#ffffff" stroke="none" x="406" y="80" width="141" height="88"/></g><g transform="translate(-106,-70) scale(1,1)"><path fill="none" stroke="#000000" d="M 406 80 L 547 80 L 547 168 L 406 168 L 406 80 Z Z" stroke-miterlimit="10"/></g><g transform="translate(-106,-70) scale(1,1)"><path fill="none" stroke="#000000" d="M 406 105 L 547 105" stroke-miterlimit="10"/></g><g transform="translate(-106,-70) scale(1,1)"><g><path fill="none" stroke="none"/><text fill="#000000" stroke="none" font-family="Arial" font-size="13px" font-style="normal" font-weight="bold" text-decoration="none" x="464" y="99.5">card</text></g></g><g transform="translate(-106,-70) scale(1,1)"><g><path fill="none" stroke="none"/><text fill="#000000" stroke="none" font-family="Arial" font-size="13px" font-style="normal" font-weight="normal" text-decoration="none" x="411" y="122.5">+id</text></g></g><g transform="translate(-106,-70) scale(1,1)"><g><path fill="none" stroke="none"/><text fill="#000000" stroke="none" font-family="Arial" font-size="13px" font-style="normal" font-weight="normal" text-decoration="none" x="411" y="137.5">+name</text></g></g><g transform="translate(-106,-70) scale(1,1)"><path fill="none" stroke="#000000" d="M 439 169 L 368 255" stroke-miterlimit="10"/></g><g transform="translate(-106,-70) scale(1,1)"><g><path fill="none" stroke="none"/><text fill="#000000" stroke="none" font-family="Arial" font-size="13px" font-style="normal" font-weight="normal" text-decoration="none" x="437.5" y="200.5">1</text></g></g><g transform="translate(-106,-70) scale(1,1)"><g><path fill="none" stroke="none"/><text fill="#000000" stroke="none" font-family="Arial" font-size="13px" font-style="normal" font-weight="normal" text-decoration="none" x="383.5" y="252.5">0..*</text></g></g><g transform="translate(-106,-70) scale(1,1)"><path fill="none" stroke="#000000" d="M 223 169 L 294 255" stroke-miterlimit="10"/></g><g transform="translate(-106,-70) scale(1,1)"><g><path fill="none" stroke="none"/><text fill="#000000" stroke="none" font-family="Arial" font-size="13px" font-style="normal" font-weight="normal" text-decoration="none" x="215.5" y="196.5">1</text></g></g><g transform="translate(-106,-70) scale(1,1)"><g><path fill="none" stroke="none"/><text fill="#000000" stroke="none" font-family="Arial" font-size="13px" font-style="normal" font-weight="normal" text-decoration="none" x="259.5" y="252.5">0..*</text></g></g><g transform="translate(-106,-70) scale(1,1)"><path fill="none" stroke="#000000" d="M 333 439 L 332 345" stroke-miterlimit="10"/></g><g transform="translate(-106,-70) scale(1,1)"><g><path fill="none" stroke="none"/><text fill="#000000" stroke="none" font-family="Arial" font-size="13px" font-style="normal" font-weight="normal" text-decoration="none" x="341.5" y="436.5">1</text></g></g><g transform="translate(-106,-70) scale(1,1)"><g><path fill="none" stroke="none"/><text fill="#000000" stroke="none" font-family="Arial" font-size="13px" font-style="normal" font-weight="normal" text-decoration="none" x="334.5" y="363.5">0..*</text></g></g></g></svg>