<svg version="1.1" xmlns="http://www.w3.org/2000/svg" xmlns:xlink="http://www.w3.org/1999/xlink" width="348" height="388"><defs/><g><g transform="translate(-142,-102) scale(1,1)"><rect fill="#C0C0C0" stroke="none" x="375" y="247" width="112" height="112" opacity="0.2"/></g><g transform="translate(-142,-102) scale(1,1)"><rect fill="#ffffff" stroke="none" x="368" y="240" width="112" height="112"/></g><g transform="translate(-142,-102) scale(1,1)"><path fill="none" stroke="#000000" d="M 368 240 L 480 240 L 480 352 L 368 352 L 368 240 Z Z" stroke-miterlimit="10"/></g><g transform="translate(-142,-102) scale(1,1)"><path fill="none" stroke="#000000" d="M 368 265 L 480 265" stroke-miterlimit="10"/></g><g transform="translate(-142,-102) scale(1,1)"><g><path fill="none" stroke="none"/><text fill="#000000" stroke="none" font-family="Arial" font-size="13px" font-style="normal" font-weight="bold" text-decoration="none" x="411.5" y="259.5">card</text></g></g><g transform="translate(-142,-102) scale(1,1)"><g><path fill="none" stroke="none"/><text fill="#000000" stroke="none" font-family="Arial" font-size="13px" font-style="normal" font-weight="normal" text-decoration="none" x="373" y="282.5">+id</text></g></g><g transform="translate(-142,-102) scale(1,1)"><g><path fill="none" stroke="none"/><text fill="#000000" stroke="none" font-family="Arial" font-size="13px" font-style="normal" font-weight="normal" text-decoration="none" x="373" y="297.5">+name</text></g></g><g transform="translate(-142,-102) scale(1,1)"><rect fill="#C0C0C0" stroke="none" x="159" y="119" width="112" height="112" opacity="0.2"/></g><g transform="translate(-142,-102) scale(1,1)"><rect fill="#ffffff" stroke="none" x="152" y="112" width="112" height="112"/></g><g transform="translate(-142,-102) scale(1,1)"><path fill="none" stroke="#000000" d="M 152 112 L 264 112 L 264 224 L 152 224 L 152 112 Z Z" stroke-miterlimit="10"/></g><g transform="translate(-142,-102) scale(1,1)"><path fill="none" stroke="#000000" d="M 152 137 L 264 137" stroke-miterlimit="10"/></g><g transform="translate(-142,-102) scale(1,1)"><g><path fill="none" stroke="none"/><text fill="#000000" stroke="none" font-family="Arial" font-size="13px" font-style="normal" font-weight="bold" text-decoration="none" x="199.5" y="131.5">list</text></g></g><g transform="translate(-142,-102) scale(1,1)"><g><path fill="none" stroke="none"/><text fill="#000000" stroke="none" font-family="Arial" font-size="13px" font-style="normal" font-weight="normal" text-decoration="none" x="157" y="154.5">+id</text></g></g><g transform="translate(-142,-102) scale(1,1)"><g><path fill="none" stroke="none"/><text fill="#000000" stroke="none" font-family="Arial" font-size="13px" font-style="normal" font-weight="normal" text-decoration="none" x="157" y="169.5">+name</text></g></g><g transform="translate(-142,-102) scale(1,1)"><rect fill="#C0C0C0" stroke="none" x="159" y="375" width="112" height="112" opacity="0.2"/></g><g transform="translate(-142,-102) scale(1,1)"><rect fill="#ffffff" stroke="none" x="152" y="368" width="112" height="112"/></g><g transform="translate(-142,-102) scale(1,1)"><path fill="none" stroke="#000000" d="M 152 368 L 264 368 L 264 480 L 152 480 L 152 368 Z Z" stroke-miterlimit="10"/></g><g transform="translate(-142,-102) scale(1,1)"><path fill="none" stroke="#000000" d="M 152 393 L 264 393" stroke-miterlimit="10"/></g><g transform="translate(-142,-102) scale(1,1)"><g><path fill="none" stroke="none"/><text fill="#000000" stroke="none" font-family="Arial" font-size="13px" font-style="normal" font-weight="bold" text-decoration="none" x="195.5" y="387.5">user</text></g></g><g transform="translate(-142,-102) scale(1,1)"><g><path fill="none" stroke="none"/><text fill="#000000" stroke="none" font-family="Arial" font-size="13px" font-style="normal" font-weight="normal" text-decoration="none" x="157" y="410.5">+id</text></g></g><g transform="translate(-142,-102) scale(1,1)"><g><path fill="none" stroke="none"/><text fill="#000000" stroke="none" font-family="Arial" font-size="13px" font-style="normal" font-weight="normal" text-decoration="none" x="157" y="425.5">+firstname</text></g></g><g transform="translate(-142,-102) scale(1,1)"><g><path fill="none" stroke="none"/><text fill="#000000" stroke="none" font-family="Arial" font-size="13px" font-style="normal" font-weight="normal" text-decoration="none" x="157" y="440.5">+lastname</text></g></g><g transform="translate(-142,-102) scale(1,1)"><path fill="none" stroke="#000000" d="M 265 202 L 367 262" stroke-miterlimit="10"/></g><g transform="translate(-142,-102) scale(1,1)"><g><path fill="none" stroke="none"/><text fill="#000000" stroke="none" font-family="Arial" font-size="13px" font-style="normal" font-weight="normal" text-decoration="none" x="273" y="229.5">1</text></g></g><g transform="translate(-142,-102) scale(1,1)"><g><path fill="none" stroke="none"/><text fill="#000000" stroke="none" font-family="Arial" font-size="13px" font-style="normal" font-weight="normal" text-decoration="none" x="331.5" y="267.5">0..*</text></g></g><g transform="translate(-142,-102) scale(1,1)"><path fill="none" stroke="#000000" d="M 367 330 L 265 390" stroke-miterlimit="10"/></g><g transform="translate(-142,-102) scale(1,1)"><g><path fill="none" stroke="none"/><text fill="#000000" stroke="none" font-family="Arial" font-size="13px" font-style="normal" font-weight="normal" text-decoration="none" x="331.5" y="336.5">0..*</text></g></g><g transform="translate(-142,-102) scale(1,1)"><g><path fill="none" stroke="none"/><text fill="#000000" stroke="none" font-family="Arial" font-size="13px" font-style="normal" font-weight="normal" text-decoration="none" x="266.5" y="374.5">0..*</text></g></g></g></svg>